<?xml version="1.0" encoding="UTF-8" ?>
<!DOCTYPE svg PUBLIC "-//W3C//DTD SVG 1.1//EN" "http://www.w3.org/Graphics/SVG/1.1/DTD/svg11.dtd">
<svg width="960pt" height="540pt" viewBox="0 0 960 540" version="1.1" xmlns="http://www.w3.org/2000/svg">
<g id="#000000ff">
</g>
<g id="#ffffffff">
<path fill="#ffffff" opacity="1.00" d=" M 821.32 75.27 C 857.18 73.89 894.38 87.34 917.57 115.44 C 949.78 153.96 955.64 207.82 948.95 255.99 C 943.95 290.15 928.51 324.26 900.57 345.61 C 875.22 365.54 841.57 372.13 809.98 368.96 C 787.41 366.85 765.21 358.77 747.46 344.51 C 711.16 315.89 697.47 267.61 697.61 222.99 C 697.44 184.76 706.58 144.59 732.11 115.06 C 753.98 89.17 787.80 75.57 821.32 75.27 M 812.43 107.53 C 795.97 109.57 779.98 116.41 767.81 127.79 C 744.20 149.68 735.24 182.76 733.97 214.00 C 732.75 247.72 738.81 284.18 761.69 310.35 C 793.33 347.64 859.26 347.35 889.65 308.64 C 912.23 280.27 916.73 242.00 914.76 206.90 C 912.76 175.20 901.26 141.66 874.82 122.19 C 857.10 109.14 834.02 104.69 812.43 107.53 Z" />
<path fill="#ffffff" opacity="1.00" d=" M 31.44 84.47 C 45.07 78.10 64.72 82.30 70.53 97.42 C 93.63 154.77 116.32 212.29 139.26 269.71 C 146.56 289.05 153.65 308.55 158.58 328.66 C 167.26 294.41 181.21 261.84 194.05 229.01 C 211.39 185.34 228.46 141.56 245.96 97.96 C 251.72 82.85 271.09 78.17 284.98 84.07 C 292.26 87.22 296.60 95.20 296.14 103.00 C 296.45 165.00 296.14 227.00 296.29 289.00 C 296.31 291.46 296.36 294.03 295.22 296.29 C 286.04 316.69 277.07 337.18 267.85 357.56 C 265.51 355.18 263.62 352.23 263.40 348.83 C 262.56 270.06 262.98 191.22 268.86 112.62 C 244.68 192.72 210.63 269.27 179.87 346.96 C 173.69 365.63 143.30 365.80 136.85 347.27 C 106.27 269.57 72.76 192.87 48.57 112.84 C 53.98 191.67 54.69 270.72 53.63 349.69 C 51.07 365.61 21.45 364.83 21.03 348.09 C 20.89 266.38 20.98 184.66 20.99 102.95 C 20.59 95.44 24.57 87.79 31.44 84.47 Z" />
<path fill="#ffffff" opacity="1.00" d=" M 343.71 95.69 C 351.85 76.21 383.79 77.11 391.21 96.73 C 415.38 157.11 439.36 217.60 463.25 278.10 C 463.91 305.34 463.10 332.73 463.14 360.02 C 459.87 357.93 457.07 355.03 455.67 351.36 C 446.35 327.05 437.14 302.69 427.79 278.39 C 387.82 278.39 347.85 278.42 307.88 278.38 C 308.00 247.31 307.50 216.19 308.06 185.15 C 319.68 155.24 331.53 125.37 343.71 95.69 M 356.07 147.12 C 342.89 180.94 329.70 214.75 316.55 248.59 C 350.07 248.61 383.60 248.60 417.13 248.59 C 400.78 203.23 381.05 159.02 367.21 112.79 C 364.20 124.45 360.51 135.93 356.07 147.12 Z" />
<path fill="#ffffff" opacity="1.00" d=" M 487.04 90.98 C 493.57 83.86 503.71 81.69 513.01 81.55 C 543.67 81.56 574.33 81.51 604.99 81.58 C 626.98 82.07 650.52 87.37 666.52 103.48 C 686.68 124.45 688.19 158.29 676.99 183.99 C 669.63 199.69 654.14 209.76 638.08 214.93 C 653.34 218.26 668.53 225.08 678.62 237.40 C 689.60 250.57 693.58 268.19 693.52 285.01 C 693.77 302.75 689.46 321.17 678.28 335.29 C 667.15 349.57 650.15 358.20 632.63 361.69 C 616.32 365.26 599.56 364.27 583.00 364.40 C 559.67 364.38 536.34 364.42 513.01 364.38 C 503.73 364.20 493.63 362.06 487.06 354.99 C 480.32 347.41 478.83 336.77 478.65 327.00 C 478.64 257.67 478.64 188.33 478.65 119.00 C 478.85 109.22 480.34 98.60 487.04 90.98 M 512.71 121.97 C 512.50 148.20 512.70 174.43 512.62 200.66 C 542.77 200.64 572.93 200.77 603.09 200.60 C 619.47 200.31 636.95 192.63 644.06 177.05 C 650.52 162.23 650.80 143.80 642.34 129.71 C 633.78 116.35 616.89 112.27 601.99 111.90 C 575.30 111.86 548.61 111.77 521.93 111.94 C 516.60 111.92 512.51 116.79 512.71 121.97 M 512.62 230.70 C 512.68 261.81 512.50 292.92 512.71 324.03 C 512.47 329.63 517.39 334.27 522.92 334.02 C 547.27 334.18 571.64 334.03 596.00 334.09 C 616.84 334.99 642.17 329.72 651.92 308.96 C 661.99 286.20 659.45 253.52 636.74 239.22 C 623.10 230.85 606.53 230.39 591.00 230.70 C 564.88 230.70 538.75 230.70 512.62 230.70 Z" />
</g>
</svg>
