<svg xmlns="http://www.w3.org/2000/svg" width="960" height="540" viewBox="0 0 960 540"><style>.a{fill:#fff;}</style><g id="#ffffffff"><path d="M821.3 75.3C857.2 73.9 894.4 87.3 917.6 115.4 949.8 154 955.6 207.8 949 256 944 290.2 928.5 324.3 900.6 345.6 875.2 365.5 841.6 372.1 810 369 787.4 366.9 765.2 358.8 747.5 344.5 711.2 315.9 697.5 267.6 697.6 223 697.4 184.8 706.6 144.6 732.1 115.1 754 89.2 787.8 75.6 821.3 75.3M812.4 107.5C796 109.6 780 116.4 767.8 127.8 744.2 149.7 735.2 182.8 734 214 732.8 247.7 738.8 284.2 761.7 310.4 793.3 347.6 859.3 347.4 889.7 308.6 912.2 280.3 916.7 242 914.8 206.9 912.8 175.2 901.3 141.7 874.8 122.2 857.1 109.1 834 104.7 812.4 107.5Z" class="a"/><path d="M31.4 84.5C45.1 78.1 64.7 82.3 70.5 97.4 93.6 154.8 116.3 212.3 139.3 269.7 146.6 289.1 153.7 308.6 158.6 328.7 167.3 294.4 181.2 261.8 194.1 229 211.4 185.3 228.5 141.6 246 98 251.7 82.9 271.1 78.2 285 84.1 292.3 87.2 296.6 95.2 296.1 103 296.5 165 296.1 227 296.3 289 296.3 291.5 296.4 294 295.2 296.3 286 316.7 277.1 337.2 267.9 357.6 265.5 355.2 263.6 352.2 263.4 348.8 262.6 270.1 263 191.2 268.9 112.6 244.7 192.7 210.6 269.3 179.9 347 173.7 365.6 143.3 365.8 136.9 347.3 106.3 269.6 72.8 192.9 48.6 112.8 54 191.7 54.7 270.7 53.6 349.7 51.1 365.6 21.5 364.8 21 348.1 20.9 266.4 21 184.7 21 103 20.6 95.4 24.6 87.8 31.4 84.5Z" class="a"/><path d="M343.7 95.7C351.9 76.2 383.8 77.1 391.2 96.7 415.4 157.1 439.4 217.6 463.3 278.1 463.9 305.3 463.1 332.7 463.1 360 459.9 357.9 457.1 355 455.7 351.4 446.4 327.1 437.1 302.7 427.8 278.4 387.8 278.4 347.9 278.4 307.9 278.4 308 247.3 307.5 216.2 308.1 185.2 319.7 155.2 331.5 125.4 343.7 95.7M356.1 147.1C342.9 180.9 329.7 214.8 316.6 248.6 350.1 248.6 383.6 248.6 417.1 248.6 400.8 203.2 381.1 159 367.2 112.8 364.2 124.5 360.5 135.9 356.1 147.1Z" class="a"/><path d="M487 91C493.6 83.9 503.7 81.7 513 81.6 543.7 81.6 574.3 81.5 605 81.6 627 82.1 650.5 87.4 666.5 103.5 686.7 124.5 688.2 158.3 677 184 669.6 199.7 654.1 209.8 638.1 214.9 653.3 218.3 668.5 225.1 678.6 237.4 689.6 250.6 693.6 268.2 693.5 285 693.8 302.8 689.5 321.2 678.3 335.3 667.2 349.6 650.2 358.2 632.6 361.7 616.3 365.3 599.6 364.3 583 364.4 559.7 364.4 536.3 364.4 513 364.4 503.7 364.2 493.6 362.1 487.1 355 480.3 347.4 478.8 336.8 478.7 327 478.6 257.7 478.6 188.3 478.7 119 478.9 109.2 480.3 98.6 487 91M512.7 122C512.5 148.2 512.7 174.4 512.6 200.7 542.8 200.6 572.9 200.8 603.1 200.6 619.5 200.3 637 192.6 644.1 177.1 650.5 162.2 650.8 143.8 642.3 129.7 633.8 116.4 616.9 112.3 602 111.9 575.3 111.9 548.6 111.8 521.9 111.9 516.6 111.9 512.5 116.8 512.7 122M512.6 230.7C512.7 261.8 512.5 292.9 512.7 324 512.5 329.6 517.4 334.3 522.9 334 547.3 334.2 571.6 334 596 334.1 616.8 335 642.2 329.7 651.9 309 662 286.2 659.5 253.5 636.7 239.2 623.1 230.9 606.5 230.4 591 230.7 564.9 230.7 538.8 230.7 512.6 230.7Z" class="a"/></g></svg>
