<?xml version="1.0" encoding="UTF-8" ?>
<!DOCTYPE svg PUBLIC "-//W3C//DTD SVG 1.1//EN" "http://www.w3.org/Graphics/SVG/1.1/DTD/svg11.dtd">
<svg width="1366pt" height="720pt" viewBox="0 0 1366 720" version="1.1" xmlns="http://www.w3.org/2000/svg">
<g id="#010101ff">
</g>
<g id="#f8f7f5ff">
<path fill="#f8f7f5" opacity="1.00" d=" M 962.44 115.58 C 981.66 113.84 1001.61 115.03 1019.66 122.35 C 1034.74 128.68 1048.50 138.39 1059.02 150.98 C 1071.22 165.80 1079.03 183.86 1083.37 202.46 C 1089.47 233.02 1090.17 265.41 1080.25 295.26 C 1072.47 321.54 1055.24 345.66 1030.91 358.87 C 1011.97 369.61 989.62 372.73 968.13 371.82 C 946.52 370.08 924.66 363.30 908.03 348.96 C 886.76 332.07 874.19 306.34 868.98 280.10 C 866.36 265.22 864.61 250.12 865.13 234.99 C 866.80 206.39 873.94 176.93 892.04 154.08 C 908.31 131.61 935.19 118.40 962.44 115.58 M 972.41 143.38 C 950.30 143.85 929.19 155.57 916.71 173.73 C 898.78 199.99 895.41 233.72 899.45 264.56 C 901.93 285.43 909.73 306.26 924.25 321.77 C 951.40 350.42 1002.64 350.50 1029.64 321.67 C 1046.33 303.64 1052.91 278.81 1054.80 254.87 C 1056.13 228.83 1053.45 201.12 1039.64 178.35 C 1026.44 154.85 999.14 141.13 972.41 143.38 Z" />
<path fill="#f8f7f5" opacity="1.00" d=" M 281.21 124.22 C 293.49 115.40 313.91 119.53 319.43 134.45 C 334.12 170.87 348.51 207.43 363.13 243.89 C 374.55 273.09 387.05 301.95 395.36 332.26 C 408.59 288.07 427.49 245.93 443.92 202.91 C 453.06 180.31 461.54 157.44 471.03 134.99 C 476.45 119.51 498.72 114.71 510.83 125.17 C 515.60 129.82 516.33 136.65 516.02 142.97 C 516.07 192.98 515.88 242.99 516.10 293.01 C 515.69 299.89 516.72 307.25 513.80 313.73 C 506.52 329.74 499.44 345.85 492.28 361.91 C 488.32 358.87 485.04 354.41 486.07 349.04 C 485.48 284.21 485.62 219.29 490.71 154.61 C 484.68 167.72 481.61 181.94 476.32 195.34 C 466.60 224.43 454.39 252.59 443.12 281.09 C 434.26 303.48 425.04 325.73 416.13 348.11 C 413.43 354.41 409.60 361.69 402.38 363.47 C 394.65 366.50 385.48 364.15 379.75 358.28 C 375.87 352.99 373.73 346.72 371.27 340.71 C 357.99 307.06 344.49 273.50 331.18 239.87 C 319.80 212.31 311.06 183.77 301.25 155.64 C 300.31 172.47 302.74 189.20 303.08 206.00 C 304.84 253.66 305.41 301.35 304.94 349.04 C 304.54 353.80 303.91 359.72 298.97 361.94 C 292.84 365.80 284.64 365.26 278.80 361.17 C 274.18 357.27 275.56 350.27 274.99 345.03 C 274.96 278.35 275.05 211.66 274.95 144.98 C 274.77 137.74 274.84 129.14 281.21 124.22 Z" />
<path fill="#f8f7f5" opacity="1.00" d=" M 562.34 124.37 C 573.84 115.89 593.30 119.38 598.59 133.52 C 618.52 182.75 637.70 232.30 657.38 281.64 C 659.63 287.61 662.80 293.44 662.70 300.02 C 663.63 320.99 662.71 341.99 663.00 362.98 C 661.57 363.02 660.16 363.07 658.75 363.13 C 652.12 355.32 649.85 345.22 646.03 335.99 C 640.39 321.32 635.13 306.50 629.10 291.98 C 594.17 291.85 559.24 292.30 524.31 291.79 C 523.85 268.19 523.84 244.57 524.02 220.97 C 523.76 215.50 525.18 210.16 527.09 205.10 C 534.43 187.02 541.54 168.85 548.69 150.69 C 552.36 141.52 555.24 131.58 562.34 124.37 M 564.25 187.20 C 554.10 213.10 544.19 239.10 533.99 264.99 C 562.45 264.97 590.92 265.12 619.39 264.89 C 605.73 226.64 589.96 189.16 577.12 150.62 C 573.01 162.87 569.19 175.24 564.25 187.20 Z" />
<path fill="#f8f7f5" opacity="1.00" d=" M 687.55 124.53 C 694.99 119.48 704.44 120.17 712.99 119.94 C 737.99 120.03 763.01 119.91 788.02 119.98 C 806.20 120.04 825.54 125.09 838.80 138.21 C 850.18 148.30 855.27 164.06 855.05 178.99 C 855.92 192.99 852.68 207.66 843.68 218.71 C 837.40 227.51 827.38 232.27 817.85 236.71 C 827.97 240.31 838.71 243.61 846.32 251.67 C 857.11 261.21 862.02 275.47 863.43 289.44 C 865.94 309.59 860.81 331.54 846.44 346.44 C 834.04 360.27 815.03 365.49 797.15 367.30 C 771.80 368.85 746.38 367.59 721.00 368.09 C 708.81 368.27 695.20 368.89 684.89 361.11 C 676.72 354.23 675.85 342.93 675.93 333.02 C 676.06 273.01 675.98 212.99 675.97 152.98 C 675.07 142.46 678.51 130.71 687.55 124.53 M 712.39 147.51 C 708.12 148.21 706.57 153.24 706.05 156.95 C 705.67 179.22 705.95 201.50 706.31 223.77 C 730.54 224.12 754.78 224.14 779.02 223.96 C 791.18 224.05 804.65 221.55 813.30 212.28 C 823.42 202.34 825.14 186.77 822.49 173.43 C 820.87 163.32 813.20 154.91 803.86 151.12 C 790.56 145.81 775.97 147.08 762.00 146.94 C 745.46 147.26 728.89 146.24 712.39 147.51 M 706.23 251.31 C 705.96 277.21 705.67 303.11 706.16 329.00 C 705.28 333.96 708.44 340.04 713.95 339.99 C 739.28 340.05 764.65 340.31 789.99 339.76 C 806.17 339.45 823.01 330.30 828.48 314.40 C 833.41 297.48 832.68 276.53 819.71 263.30 C 809.91 253.47 795.24 251.51 782.02 251.08 C 756.75 250.86 731.49 250.82 706.23 251.31 Z" />
<path fill="#f8f7f5" opacity="1.00" d=" M 998.67 404.63 C 1027.00 402.08 1056.09 402.68 1083.63 410.45 C 1083.31 417.69 1083.04 424.95 1082.90 432.21 C 1056.62 425.67 1029.29 424.95 1002.38 426.45 C 994.87 427.33 987.17 428.64 980.59 432.57 C 975.14 435.68 974.18 444.23 978.21 448.80 C 982.68 452.72 988.52 454.80 994.37 455.61 C 1018.69 459.75 1044.07 457.34 1067.70 465.42 C 1078.88 469.14 1089.98 477.36 1092.60 489.39 C 1095.94 501.87 1093.55 516.65 1083.56 525.53 C 1070.70 537.47 1052.34 539.97 1035.60 541.53 C 1005.78 543.00 975.55 541.78 946.37 535.08 C 946.77 527.31 946.96 519.54 947.12 511.78 C 973.91 517.99 1001.51 520.32 1028.97 519.87 C 1040.61 518.95 1053.25 518.24 1063.04 511.04 C 1067.93 507.27 1069.70 499.27 1065.73 494.23 C 1062.19 489.98 1056.95 487.47 1051.62 486.37 C 1027.30 481.33 1001.88 484.08 977.88 477.16 C 966.93 473.98 955.82 467.54 951.56 456.39 C 948.38 445.82 947.86 433.18 954.99 424.01 C 965.09 410.65 982.75 406.15 998.67 404.63 Z" />
<path fill="#f8f7f5" opacity="1.00" d=" M 727.69 403.66 C 751.28 435.25 774.20 467.33 797.28 499.30 C 820.74 467.62 843.39 435.35 866.85 403.66 C 882.99 443.24 898.23 483.20 914.16 522.88 C 916.39 528.49 918.49 534.17 920.39 539.91 C 910.88 539.95 901.38 539.98 891.89 540.03 C 880.99 512.05 870.93 483.74 860.33 455.64 C 838.76 484.06 818.55 513.47 797.38 542.19 C 776.19 513.52 756.13 484.01 734.42 455.75 C 723.94 483.84 713.73 512.02 703.02 540.01 C 693.35 539.99 683.70 539.97 674.04 540.02 C 691.75 494.50 709.93 449.16 727.69 403.66 Z" />
<path fill="#f8f7f5" opacity="1.00" d=" M 274.00 406.00 C 319.00 405.99 364.00 405.99 409.00 406.00 C 408.99 413.66 408.99 421.33 409.00 429.00 C 373.33 429.02 337.66 428.98 301.99 429.01 C 302.00 441.00 302.01 452.99 302.00 464.99 C 331.00 465.02 360.00 464.98 389.01 465.01 C 388.99 472.66 388.99 480.33 389.00 488.00 C 359.77 488.13 330.54 487.70 301.31 488.23 C 300.89 505.49 300.94 522.75 301.00 540.01 C 292.00 539.96 283.00 539.97 274.00 540.01 C 273.99 495.34 274.00 450.67 274.00 406.00 Z" />
<path fill="#f8f7f5" opacity="1.00" d=" M 447.00 405.98 C 455.99 406.02 464.99 406.02 474.00 405.99 C 474.01 450.67 474.00 495.34 474.00 540.02 C 464.99 539.97 456.00 539.97 447.00 540.01 C 446.99 495.33 447.00 450.66 447.00 405.98 Z" />
<path fill="#f8f7f5" opacity="1.00" d=" M 524.00 405.98 C 533.33 406.02 542.66 406.02 552.00 405.99 C 552.02 442.99 551.98 479.99 552.01 516.99 C 585.34 517.02 618.67 516.98 652.00 517.00 C 651.98 524.66 651.99 532.33 652.00 540.00 C 609.44 539.85 566.87 540.31 524.31 539.76 C 523.60 495.17 524.18 450.57 524.00 405.98 Z" />
</g>
</svg>
